{"glyphs":{" ":{"ha":833,"x_min":0,"x_max":0,"o":""},"A":{"ha":1429,"x_min":0,"x_max":0,"o":""},"B":{"ha":833,"x_min":0,"x_max":0,"o":""},"C":{"ha":833,"x_min":0,"x_max":0,"o":""},"D":{"ha":833,"x_min":0,"x_max":0,"o":""},"E":{"ha":833,"x_min":0,"x_max":0,"o":""},"F":{"ha":833,"x_min":0,"x_max":0,"o":""},"G":{"ha":833,"x_min":0,"x_max":0,"o":""},"H":{"ha":1022,"x_min":0,"x_max":0,"o":""},"I":{"ha":833,"x_min":0,"x_max":0,"o":""},"J":{"ha":833,"x_min":0,"x_max":0,"o":""},"K":{"ha":833,"x_min":0,"x_max":0,"o":""},"L":{"ha":833,"x_min":0,"x_max":0,"o":""},"M":{"ha":833,"x_min":0,"x_max":0,"o":""},"N":{"ha":833,"x_min":0,"x_max":0,"o":""},"O":{"ha":833,"x_min":0,"x_max":0,"o":""},"P":{"ha":833,"x_min":0,"x_max":0,"o":""},"Q":{"ha":833,"x_min":0,"x_max":0,"o":""},"R":{"ha":1753,"x_min":0,"x_max":0,"o":""},"S":{"ha":833,"x_min":0,"x_max":0,"o":""},"T":{"ha":717,"x_min":0,"x_max":0,"o":""},"U":{"ha":833,"x_min":0,"x_max":0,"o":""},"V":{"ha":833,"x_min":0,"x_max":0,"o":""},"W":{"ha":833,"x_min":0,"x_max":0,"o":""},"X":{"ha":833,"x_min":0,"x_max":0,"o":""},"Y":{"ha":833,"x_min":0,"x_max":0,"o":""},"Z":{"ha":833,"x_min":0,"x_max":0,"o":""},"a":{"ha":1275,"x_min":0,"x_max":1185,"o":"m 139 888 l 139 972 l 986 972 l 1125 1111 l 0 1111 l 0 749 l 139 888 m 1179 139 l 1008 139 q 1081 194 1047 163 q 1144 275 1115 226 q 1178 375 1172 324 q 1156 492 1185 426 q 1056 619 1126 557 q 965 717 999 672 q 921 797 931 761 q 911 853 911 832 q 917 904 911 874 q 829 730 819 810 q 949 557 839 650 l 968 539 l 551 539 l 469 457 l 469 904 l 331 765 l 331 539 l 139 539 l 0 400 l 249 400 l 331 482 l 331 271 q 105 265 210 304 q 0 139 0 225 l 0 0 l 293 0 l 293 139 l 33 139 q 110 192 47 186 q 249 175 174 199 q 394 110 324 151 q 468 61 421 94 q 549 11 515 28 q 611 -6 582 -6 q 739 149 739 -6 q 682 122 713 126 q 616 129 651 117 q 551 158 581 142 q 478 201 522 174 q 404 242 433 228 l 469 307 l 469 400 l 938 400 l 1015 478 q 1049 322 1056 397 q 999 192 1042 246 q 901 139 956 139 l 886 139 l 886 0 l 1179 0 l 1179 139 "},"b":{"ha":833,"x_min":0,"x_max":0,"o":""},"c":{"ha":833,"x_min":0,"x_max":0,"o":""},"d":{"ha":833,"x_min":0,"x_max":0,"o":""},"e":{"ha":833,"x_min":0,"x_max":0,"o":""},"f":{"ha":833,"x_min":0,"x_max":0,"o":""},"g":{"ha":833,"x_min":0,"x_max":0,"o":""},"h":{"ha":1836,"x_min":0,"x_max":1740,"o":"m 531 888 l 531 972 l 929 972 l 1068 1111 l 392 1111 l 392 749 l 531 888 m 1303 888 l 1303 972 l 1601 972 l 1740 1111 l 1164 1111 l 1164 749 l 1303 888 m 1440 139 l 1533 232 l 1533 904 l 1394 765 l 1394 539 l 951 539 l 869 457 l 869 913 l 731 774 l 731 539 l 0 539 l 0 449 q 71 353 0 396 q 244 279 142 310 q 452 218 347 249 q 638 144 557 188 q 731 44 718 100 l 731 0 l 869 0 l 869 400 l 1313 400 l 1394 482 l 1394 139 l 1224 139 l 1224 0 l 1690 0 l 1690 139 l 1440 139 m 224 400 l 649 400 l 731 482 l 731 138 q 557 228 686 181 q 326 317 428 275 q 224 400 225 358 "},"i":{"ha":788,"x_min":-3,"x_max":656,"o":"m 193 888 l 193 972 l 492 972 l 631 1111 l 54 1111 l 54 749 l 193 888 m 285 400 l 285 168 l 424 307 l 424 400 l 517 400 l 656 539 l 424 539 l 424 904 l 285 765 l 285 539 l 136 539 l -3 400 l 285 400 m 108 139 l 108 0 l 575 0 l 575 139 l 108 139 "},"j":{"ha":833,"x_min":0,"x_max":0,"o":""},"k":{"ha":833,"x_min":0,"x_max":0,"o":""},"l":{"ha":833,"x_min":0,"x_max":0,"o":""},"m":{"ha":833,"x_min":0,"x_max":0,"o":""},"n":{"ha":833,"x_min":0,"x_max":0,"o":""},"o":{"ha":833,"x_min":0,"x_max":0,"o":""},"p":{"ha":833,"x_min":0,"x_max":0,"o":""},"q":{"ha":833,"x_min":0,"x_max":0,"o":""},"r":{"ha":1494,"x_min":0,"x_max":1494,"o":"m 139 888 l 139 972 l 988 972 q 897 753 979 839 q 665 636 814 667 q 858 671 764 636 q 1018 755 951 706 q 1139 853 1085 804 q 1233 938 1193 903 q 1294 972 1274 972 l 1156 1111 l 0 1111 l 0 749 l 139 888 m 1494 539 l 574 539 l 489 454 q 374 619 464 539 q 281 715 315 672 q 238 795 247 758 q 229 852 229 832 q 235 904 229 872 q 147 730 138 810 q 267 557 157 650 q 356 427 333 500 q 361 286 378 354 q 202 245 268 286 q 136 139 136 204 l 136 0 l 389 0 l 389 139 l 326 139 q 378 176 349 153 q 531 110 460 150 q 604 61 557 94 q 685 11 651 28 q 747 -6 718 -6 q 875 149 875 -6 q 814 122 846 125 q 745 133 782 118 q 676 165 708 147 q 597 210 643 183 q 518 253 551 238 q 463 272 489 267 q 497 400 499 335 l 1283 400 l 1022 139 l 1022 0 l 1315 0 l 1315 139 l 1094 139 l 1494 539 m 219 139 l 169 139 q 315 190 190 210 q 219 139 272 139 "},"s":{"ha":833,"x_min":0,"x_max":0,"o":""},"t":{"ha":1221,"x_min":-1,"x_max":1128,"o":"m 139 888 l 139 972 l 986 972 l 1125 1111 l 0 1111 l 0 749 l 139 888 m 1128 539 l 594 539 l 513 457 l 513 904 l 374 765 q 302 703 353 747 q 231 640 251 658 q 170 582 211 621 q 111 522 129 543 q 67 466 93 500 q 28 407 40 432 q 8 351 17 382 q -1 289 -1 319 q 37 158 -1 217 q 133 65 75 99 q 251 12 190 31 q 364 -7 311 -7 q 465 2 418 -7 q 563 40 511 11 q 652 92 615 68 q 754 174 689 115 q 860 272 819 233 q 989 400 900 311 l 1128 539 m 374 701 l 374 133 q 301 140 336 133 q 225 162 267 146 q 158 215 183 178 q 133 304 133 251 q 176 479 133 404 q 374 701 219 554 m 421 133 l 513 225 l 513 400 l 908 400 q 646 192 758 250 q 421 133 533 135 "},"u":{"ha":833,"x_min":0,"x_max":0,"o":""},"v":{"ha":833,"x_min":0,"x_max":0,"o":""},"w":{"ha":833,"x_min":0,"x_max":0,"o":""},"x":{"ha":833,"x_min":0,"x_max":0,"o":""},"y":{"ha":833,"x_min":0,"x_max":0,"o":""},"z":{"ha":833,"x_min":0,"x_max":0,"o":""}}}
